<?xml version="1.0" encoding="UTF-8"?>
<svg width="297px" height="38px" viewBox="0 0 297 38" version="1.1" xmlns="http://www.w3.org/2000/svg" xmlns:xlink="http://www.w3.org/1999/xlink">
    <!-- Generator: Sketch 46.1 (44463) - http://www.bohemiancoding.com/sketch -->
    <title>cccompare.co@2x</title>
    <desc>Created with Sketch.</desc>
    <defs></defs>
    <g id="Symbols" stroke="none" stroke-width="1" fill="none" fill-rule="evenodd">
        <g id="cccompare.co">
            <g id="logo-ccc">
                <g id="Group" stroke-width="1" fill="#19243B">
                    <path d="M4,4 L4,34 L50,34 L50,4 L4,4 Z M0,0 L54,0 L54,38 L0,38 L0,0 Z" id="Rectangle-5" fill-rule="nonzero"></path>
                    <path d="M9,18.542 C9,16.067425 9.82881158,14.025138 11.4864596,12.415078 C13.1441076,10.8050179 15.1705321,10 17.5657939,10 C19.4217252,10 21.0714171,10.4917351 22.5149192,11.4752201 C23.9584213,12.458705 24.9656852,13.8228734 25.5367409,15.567766 L20.6827911,15.567766 C20.0482847,14.3463412 19.0330896,13.7356379 17.6371755,13.7356379 C16.2412614,13.7356379 15.1427886,14.1718545 14.3417242,15.0443008 C13.5406599,15.9167472 13.1401337,17.0826352 13.1401337,18.542 C13.1401337,20.0013648 13.5406599,21.1672528 14.3417242,22.0396992 C15.1427886,22.9121455 16.2412614,23.3483621 17.6371755,23.3483621 C19.0330896,23.3483621 20.0482847,22.7376588 20.6827911,21.516234 L25.5367409,21.516234 C24.9656852,23.2611266 23.9584213,24.625295 22.5149192,25.6087799 C21.0714171,26.5922649 19.4217252,27.084 17.5657939,27.084 C15.1705321,27.084 13.1441076,26.2789821 11.4864596,24.668922 C9.82881158,23.058862 9,21.016575 9,18.542 Z" id="C"></path>
                    <path d="M27,18.542 C27,16.067425 27.8288116,14.025138 29.4864596,12.415078 C31.1441076,10.8050179 33.1705321,10 35.5657939,10 C37.4217252,10 39.0714171,10.4917351 40.5149192,11.4752201 C41.9584213,12.458705 42.9656852,13.8228734 43.5367409,15.567766 L38.6827911,15.567766 C38.0482847,14.3463412 37.0330896,13.7356379 35.6371755,13.7356379 C34.2412614,13.7356379 33.1427886,14.1718545 32.3417242,15.0443008 C31.5406599,15.9167472 31.1401337,17.0826352 31.1401337,18.542 C31.1401337,20.0013648 31.5406599,21.1672528 32.3417242,22.0396992 C33.1427886,22.9121455 34.2412614,23.3483621 35.6371755,23.3483621 C37.0330896,23.3483621 38.0482847,22.7376588 38.6827911,21.516234 L43.5367409,21.516234 C42.9656852,23.2611266 41.9584213,24.625295 40.5149192,25.6087799 C39.0714171,26.5922649 37.4217252,27.084 35.5657939,27.084 C33.1705321,27.084 31.1441076,26.2789821 29.4864596,24.668922 C27.8288116,23.058862 27,21.016575 27,18.542 Z" id="C" transform="translate(35.268370, 18.542000) rotate(-180.000000) translate(-35.268370, -18.542000) "></path>
                </g>
                <rect id="Rectangle-4" fill="#4F87FB" x="17" y="17" width="18" height="3"></rect>
            </g>
            <g id="logotype-ccc" transform="translate(70.243164, 9.833519)">
                <g id="Group" transform="translate(0.000000, -7.500000)">
                    <path d="M144.182645,15.6083057 C143.908358,15.878307 143.570584,16.0133057 143.169312,16.0133057 C142.76804,16.0133057 142.430266,15.878307 142.155978,15.6083057 C141.881691,15.3383043 141.74455,15.0058076 141.74455,14.6108057 C141.74455,14.2158037 141.881691,13.883307 142.155978,13.6133057 C142.430266,13.3433043 142.76804,13.2083057 143.169312,13.2083057 C143.570584,13.2083057 143.908358,13.3433043 144.182645,13.6133057 C144.456932,13.883307 144.594074,14.2158037 144.594074,14.6108057 C144.594074,15.0058076 144.456932,15.3383043 144.182645,15.6083057 Z M145.645502,11.8283057 C145.645502,10.5282992 146.039149,9.49080954 146.826455,8.71580566 C147.61376,7.94080179 148.632163,7.55330566 149.881693,7.55330566 C150.917888,7.55330566 151.79661,7.80580314 152.517883,8.31080566 C153.239157,8.81580819 153.716612,9.53830096 153.950264,10.4783057 L151.131217,10.4783057 C150.887406,9.97830316 150.48868,9.72830566 149.935026,9.72830566 C149.381372,9.72830566 148.969948,9.92080374 148.70074,10.3058057 C148.431533,10.6908076 148.296931,11.1983025 148.296931,11.8283057 C148.296931,12.4583088 148.431533,12.9658037 148.70074,13.3508057 C148.969948,13.7358076 149.363595,13.9283057 149.881693,13.9283057 C150.206774,13.9283057 150.460739,13.8733062 150.643597,13.7633057 C150.826456,13.6533051 150.988994,13.4583071 151.131217,13.1783057 L153.950264,13.1783057 C153.716612,14.0783102 153.234077,14.793303 152.502645,15.3233057 C151.771213,15.8533083 150.897571,16.1183057 149.881693,16.1183057 C148.632163,16.1183057 147.61376,15.7283096 146.826455,14.9483057 C146.039149,14.1683018 145.645502,13.1283122 145.645502,11.8283057 Z M161.035978,11.8283057 C161.035978,11.1483023 160.858202,10.6308074 160.502645,10.2758057 C160.147088,9.92080389 159.725505,9.74330566 159.237883,9.74330566 C158.750262,9.74330566 158.331218,9.92080389 157.98074,10.2758057 C157.630262,10.6308074 157.455026,11.1483023 157.455026,11.8283057 C157.455026,12.5083091 157.635342,13.0283039 157.995978,13.3883057 C158.356615,13.7483075 158.780738,13.9283057 159.268359,13.9283057 C159.755981,13.9283057 160.172485,13.7483075 160.517883,13.3883057 C160.863282,13.0283039 161.035978,12.5083091 161.035978,11.8283057 Z M154.803597,11.8133057 C154.803597,10.5232992 155.23026,9.49080954 156.083597,8.71580566 C156.936935,7.94080179 157.993432,7.55330566 159.253121,7.55330566 C160.51281,7.55330566 161.566768,7.94080179 162.415026,8.71580566 C163.263284,9.49080954 163.687407,10.5232992 163.687407,11.8133057 C163.687407,13.1033121 163.265824,14.1433017 162.422645,14.9333057 C161.579466,15.7233096 160.528048,16.1183057 159.268359,16.1183057 C158.008671,16.1183057 156.949634,15.7233096 156.091217,14.9333057 C155.2328,14.1433017 154.803597,13.1033121 154.803597,11.8133057 Z" id=".co" fill="#4F87FB"></path>
                    <path d="M0.725333333,16.587 C0.725333333,14.4029891 1.46843701,12.6005071 2.95466667,11.1795 C4.44089632,9.75849289 6.25776704,9.048 8.40533333,9.048 C10.0693417,9.048 11.548438,9.48199566 12.8426667,10.35 C14.1368954,11.2180043 15.0399974,12.4219923 15.552,13.962 L11.2,13.962 C10.6311083,12.8839946 9.72089515,12.345 8.46933333,12.345 C7.21777152,12.345 6.23289248,12.7299962 5.51466667,13.5 C4.79644085,14.2700038 4.43733333,15.2989936 4.43733333,16.587 C4.43733333,17.8750064 4.79644085,18.9039961 5.51466667,19.674 C6.23289248,20.4440038 7.21777152,20.829 8.46933333,20.829 C9.72089515,20.829 10.6311083,20.2900054 11.2,19.212 L15.552,19.212 C15.0399974,20.7520077 14.1368954,21.9559957 12.8426667,22.824 C11.548438,23.6920043 10.0693417,24.126 8.40533333,24.126 C6.25776704,24.126 4.44089632,23.4155071 2.95466667,21.9945 C1.46843701,20.5734929 0.725333333,18.7710109 0.725333333,16.587 Z M17.024,16.587 C17.024,14.4029891 17.7671037,12.6005071 19.2533333,11.1795 C20.739563,9.75849289 22.5564337,9.048 24.704,9.048 C26.3680083,9.048 27.8471046,9.48199566 29.1413333,10.35 C30.435562,11.2180043 31.3386641,12.4219923 31.8506667,13.962 L27.4986667,13.962 C26.9297749,12.8839946 26.0195618,12.345 24.768,12.345 C23.5164382,12.345 22.5315591,12.7299962 21.8133333,13.5 C21.0951075,14.2700038 20.736,15.2989936 20.736,16.587 C20.736,17.8750064 21.0951075,18.9039961 21.8133333,19.674 C22.5315591,20.4440038 23.5164382,20.829 24.768,20.829 C26.0195618,20.829 26.9297749,20.2900054 27.4986667,19.212 L31.8506667,19.212 C31.3386641,20.7520077 30.435562,21.9559957 29.1413333,22.824 C27.8471046,23.6920043 26.3680083,24.126 24.704,24.126 C22.5564337,24.126 20.739563,23.4155071 19.2533333,21.9945 C17.7671037,20.5734929 17.024,18.7710109 17.024,16.587 Z M33.3226667,16.587 C33.3226667,14.4029891 34.0657703,12.6005071 35.552,11.1795 C37.0382297,9.75849289 38.8551004,9.048 41.0026667,9.048 C42.666675,9.048 44.1457713,9.48199566 45.44,10.35 C46.7342287,11.2180043 47.6373308,12.4219923 48.1493333,13.962 L43.7973333,13.962 C43.2284416,12.8839946 42.3182285,12.345 41.0666667,12.345 C39.8151049,12.345 38.8302258,12.7299962 38.112,13.5 C37.3937742,14.2700038 37.0346667,15.2989936 37.0346667,16.587 C37.0346667,17.8750064 37.3937742,18.9039961 38.112,19.674 C38.8302258,20.4440038 39.8151049,20.829 41.0666667,20.829 C42.3182285,20.829 43.2284416,20.2900054 43.7973333,19.212 L48.1493333,19.212 C47.6373308,20.7520077 46.7342287,21.9559957 45.44,22.824 C44.1457713,23.6920043 42.666675,24.126 41.0026667,24.126 C38.8551004,24.126 37.0382297,23.4155071 35.552,21.9945 C34.0657703,20.5734929 33.3226667,18.7710109 33.3226667,16.587 Z M61.248,16.587 C61.248,15.2989936 60.8888925,14.2700038 60.1706667,13.5 C59.4524409,12.7299962 58.4924505,12.345 57.2906667,12.345 C56.0888829,12.345 55.1288925,12.7299962 54.4106667,13.5 C53.6924409,14.2700038 53.3333333,15.2989936 53.3333333,16.587 C53.3333333,17.8750064 53.6924409,18.9039961 54.4106667,19.674 C55.1288925,20.4440039 56.0888829,20.829 57.2906667,20.829 C58.4924505,20.829 59.4524409,20.4440039 60.1706667,19.674 C60.8888925,18.9039961 61.248,17.8750064 61.248,16.587 Z M49.6213333,16.587 C49.6213333,14.4029891 50.364437,12.6005071 51.8506667,11.1795 C53.3368963,9.75849289 55.1573226,9.048 57.312,9.048 C59.4666774,9.048 61.2799926,9.75849289 62.752,11.1795 C64.2240074,12.6005071 64.96,14.4029891 64.96,16.587 C64.96,18.7710109 64.2204518,20.5769929 62.7413333,22.005 C61.2622148,23.4330071 59.4488996,24.147 57.3013333,24.147 C55.153767,24.147 53.3368963,23.4330071 51.8506667,22.005 C50.364437,20.5769929 49.6213333,18.7710109 49.6213333,16.587 Z M84.2666667,9.258 L84.2666667,24 L80.6186667,24 L80.6186667,15.684 L77.1413333,24 L74.432,24 L70.9546667,15.684 L70.9546667,24 L67.3066667,24 L67.3066667,9.258 L71.488,9.258 L75.7973333,19.422 L80.0853333,9.258 L84.2666667,9.258 Z M98.88,13.773 C98.88,14.767005 98.517337,15.7259954 97.792,16.65 C97.4079981,17.1260024 96.8355594,17.5144985 96.0746667,17.8155 C95.313774,18.1165015 94.4142274,18.267 93.376,18.267 L91.1146667,18.267 L91.1146667,24 L87.4666667,24 L87.4666667,9.258 L93.376,9.258 C95.1111198,9.258 96.4622174,9.69899559 97.4293333,10.581 C98.3964493,11.4630044 98.88,12.5269938 98.88,13.773 Z M91.1146667,15.537 L93.376,15.537 C93.9306694,15.537 94.3679984,15.3760016 94.688,15.054 C95.0080016,14.7319984 95.168,14.3085026 95.168,13.7835 C95.168,13.2584974 95.0044461,12.8280017 94.6773333,12.492 C94.3502206,12.1559983 93.9164471,11.988 93.376,11.988 L91.1146667,11.988 L91.1146667,15.537 Z M110.592,24 L109.76,21.522 L104.384,21.522 L103.552,24 L99.6693333,24 L104.874667,9.216 L109.312,9.216 L114.496,24 L110.592,24 Z M105.301333,18.792 L108.842667,18.792 L107.072,13.542 L105.301333,18.792 Z M119.936,18.267 L119.936,24 L116.288,24 L116.288,9.258 L122.197333,9.258 C123.932453,9.258 125.283551,9.69899559 126.250667,10.581 C127.217783,11.4630044 127.701333,12.5269938 127.701333,13.773 C127.701333,14.6270043 127.438225,15.4599959 126.912,16.272 C126.385775,17.0840041 125.525339,17.6579983 124.330667,17.994 L128,24 L123.733333,24 L120.362667,18.267 L119.936,18.267 Z M119.936,11.988 L119.936,15.537 L122.197333,15.537 C122.752003,15.537 123.189332,15.3760016 123.509333,15.054 C123.829335,14.7319984 123.989333,14.3085026 123.989333,13.7835 C123.989333,13.2584974 123.825779,12.8280017 123.498667,12.492 C123.171554,12.1559983 122.73778,11.988 122.197333,11.988 L119.936,11.988 Z M139.605333,9.216 L139.605333,11.946 L134.186667,11.946 L134.186667,15.117 L138.965333,15.117 L138.965333,17.847 L134.186667,17.847 L134.186667,21.27 L139.605333,21.27 L139.605333,24 L130.538667,24 L130.538667,9.216 L139.605333,9.216 Z" id="CCCompare" fill="#19243B"></path>
                </g>
            </g>
        </g>
    </g>
</svg>