<svg id="Layer_1" data-name="Layer 1" xmlns="http://www.w3.org/2000/svg" viewBox="0 0 135.36 77.93"><defs><style>.cls-1{fill:#029ee4;}</style></defs><title>logo_cryptopay_small</title><path d="M0,39c0-21,13.19-39,38.15-39,9.48,0,17,2.81,24.89,9.7a7.33,7.33,0,0,1,.3,10.52,7.4,7.4,0,0,1-10-.3c-4.44-4.67-9-6-15.19-6C21.41,13.93,13.33,25.78,13.33,39c0,13.48,7.93,25.85,24.81,25.85,6.22,0,11.93-2.52,17-7a7.28,7.28,0,0,1,10,1.33c1.7,2.37,2.59,6.44-1.19,10.22-7.63,7-16.74,8.44-25.78,8.44C11.85,77.93,0,60,0,39Z"/><path class="cls-1" d="M76,8.52A7.48,7.48,0,0,1,83.44,1h25.11c14.15,0,26.81,9.48,26.81,27.63,0,17.19-12.74,26.74-26.81,26.74H90.32V69.78c0,4.81-3,7.48-7,7.48A7.38,7.38,0,0,1,76,69.78V8.52H76Zm14.3,6.15V41.78h18.15c7.26,0,13-6.44,13-13.19,0-7.63-5.78-13.93-13-13.93Z"/></svg>