<svg id="Layer_1" data-name="Layer 1" xmlns="http://www.w3.org/2000/svg" viewBox="0 0 130.14 125.68"><defs><style>.cls-1{fill:#224f6c;}.cls-2{fill:#f6b034;}</style></defs><title>logo_spectrocoin_small</title><path class="cls-1" d="M0,52.32l2.15-7,21.47,5.77c9.56,2.57,19.13,5.1,28.68,7.71C62,61.5,69.13,67,72.49,76.94c1.92,5.67,4.45,11.13,6.71,16.67C83.26,94.05,87,95,90.2,98l-4.35,4.76c-3.24-2.59-7.1-2.64-11.17-2.79L66.36,79.57c-5.66,3.61-11.38,4-16.75-.16-5.1-4-6.32-9.35-4.49-15.7L7,53.49C5.32,60.2,12,67.7,19.28,67.17l.44-3.54,6.37,1.66c-.71,11.4,2.94,21,11.78,28.12s18.93,8.78,30,5.71c.55.83,1.09,1.68,1.65,2.51a16.21,16.21,0,0,0,16.93,6.79,3,3,0,0,0,1.39-.56q6-5.9,12-11.86c-2.2-5.4-4.12-10.69-6.48-15.78-2.51-5.35-3.36-10.94-4-16.75-1.55-14.64-16.67-27.38-31-26.58a2.2,2.2,0,0,0-.33.42c-4.14,9-11.92,13.13-21.69,11.47a96.62,96.62,0,0,1-11.76-2.7A18.79,18.79,0,0,1,11.2,26.86,19.1,19.1,0,0,1,27.08,9.33Q53.24,4.81,79.39.19C80,.08,80.63.06,81.3,0,77,16.08,65.66,27.13,49.81,30c-6.4,1.16-12.81,2.24-19.36,3.38l-1.13-6.46c5.8-1,11.43-2.16,17.11-3,9.07-1.33,16.66-5.16,22.3-12.51.65-.85,1.23-1.77,2.07-3L56,11c-9.26,1.62-18.5,3.27-27.76,4.85a12.44,12.44,0,0,0-10.47,11.6,12.15,12.15,0,0,0,8.74,12.3,84.92,84.92,0,0,0,12.91,2.82c5.32.74,11.21-3.17,12.76-8.41.34-1.16.62-2.34,1-3.71a39.07,39.07,0,0,1,28.82,8L130.14,30C125.93,44.38,117.51,54.51,103,59.2c-.4-1.2-.72-2.2-1-3.2s-.56-2-.88-3.09a32.08,32.08,0,0,0,18.33-14.28L87.79,44.17A40.39,40.39,0,0,1,95,58a28.53,28.53,0,0,1,1.36,8.3,19,19,0,0,0,1.7,8c3.2,7.66,6.28,15.36,9.51,23.3-5.35,5.3-10.67,10.75-16.21,16-1.64,1.55-4.15,1.57-6.37,1.73a22.6,22.6,0,0,1-19.34-7.84l-.72-.8C42.27,110.28,23,95.26,19.72,74.13a51.47,51.47,0,0,1-5.23-.76A19,19,0,0,1,.33,57.61,7,7,0,0,0,0,56.55ZM63.31,73.11c-2.92-4-7-6.1-11.56-7.53a6.93,6.93,0,0,0,11.56,7.53Z"/><path class="cls-2" d="M54.92,125.68c-4.07-.72-8.18-1.09-12.19-2.2A56.85,56.85,0,0,1,1.49,75.31a10.92,10.92,0,0,1-.18-3.77A40.46,40.46,0,0,0,6.64,75.7,28.81,28.81,0,0,0,13,78.41c2.78,11.59,8.89,21.16,18.84,28s21,9.27,33.06,7.68a29.42,29.42,0,0,0,16,6.51,50.34,50.34,0,0,1-12.15,3.91c-2.16.42-4.33.78-6.5,1.17Z"/><path class="cls-2" d="M103.78,64.42a53.17,53.17,0,0,0,10.36-4.32,56.53,56.53,0,0,1-3.73,30.5c-2.32-5.7-4.87-10.91-6.48-16.39C103.06,71.23,103.78,67.77,103.78,64.42Z"/><path class="cls-2" d="M72.23,25a49.31,49.31,0,0,0,7.64-8.83A55.78,55.78,0,0,1,99.63,30L86.15,32.43A48.35,48.35,0,0,0,72.23,25Z"/></svg>