<svg id="Layer_1" data-name="Layer 1" xmlns="http://www.w3.org/2000/svg" viewBox="0 0 942.35 843.68"><defs><style>.cls-1{fill:#002855;}</style></defs><title>logo_bitpay_small</title><path class="cls-1" d="M931.11,325.46c-7.26-23.11-18.48-43.57-33.66-60.73a164.81,164.81,0,0,0-58.76-40.94c-23.1-9.89-51.48-15.18-84.5-15.18H580.57L429.4,843.68H559.46l39.6-159.09a376,376,0,0,0,60.08,5.28c40.93,0,78.56-7.27,113.54-21.78s64.69-34.33,89.78-60.08a270.28,270.28,0,0,0,58.76-91.76c13.86-35.65,21.13-74.6,21.13-117.51C942.35,372.34,939,347.91,931.11,325.46ZM802.39,479.28c-7.93,21.12-17.82,39.61-31,54.79a143.36,143.36,0,0,1-48.19,35.64c-19.14,8.59-39.61,12.55-62.71,12.55-14.53,0-27.08-.66-37-3.3l64-261.42H739c27.73,0,46.86,9.24,58.09,27.06,11.22,17.17,16.5,38.95,16.5,64C813.61,434.38,809.65,458.14,802.39,479.28Z"/><path class="cls-1" d="M457.48,323.48q-9.9-33.66-29.7-59.42A144.91,144.91,0,0,0,377,223.79c-20.47-9.89-44.89-15.18-72.62-15.18-13.2,0-25.75,1.33-37,4.62-11.88,2.63-22.45,6.6-34.33,11.87L286.51,0,151.17,21.13,0,656.2a269.87,269.87,0,0,0,53.47,19.14C72,680,89.78,683.26,107,685.9a288.64,288.64,0,0,0,44.89,4c13.2.66,22.44.66,27.72.66,40.93,0,78.56-7.92,113.55-23.1a284.38,284.38,0,0,0,91.1-62.72C410,578.3,429.75,546.61,444.94,511c15.18-36.3,22.44-73.93,22.44-114.2Q467.38,357.15,457.48,323.48ZM326.12,471.35a194.23,194.23,0,0,1-31,56.12,158,158,0,0,1-46.87,39.61c-17.83,10.56-37,15.18-57.44,15.18-6.6,0-11.88,0-15.18.66-4.62,0-9.9-.66-27.07-3.3L205.31,340c10.56-9.24,21.78-15.85,35-18.48,13.21-3.3,21.79-4,29.71-4,25.09,0,44.23,7.26,53.47,23.11s13.87,37.62,13.87,65.35A200,200,0,0,1,326.12,471.35Z"/></svg>