<svg id="Layer_1" data-name="Layer 1" xmlns="http://www.w3.org/2000/svg" viewBox="0 0 97.52 95.85"><defs><style>.cls-1{fill:#d0262d;}</style></defs><title>logo_anxpro_small</title><path class="cls-1" d="M97.52,0V95.85H0V0ZM20.35,28.43c1.48.68,2.81,1.34,4.17,1.92,10.78,4.61,13.33,10.52,9,21.36C31.93,55.55,30,59.27,28.14,63c-2,4-1.5,7.5,1.69,10.42,4.9,4.49,9.87,8.94,15.06,13.09C49.38,90,53.66,89,56.39,83.89c3.07-5.71,6-11.48,9-17.23,3.08-5.9,1.63-10.55-4.35-13.61-4.88-2.5-10-4.58-14.66-7.42-6.74-4.1-8.85-9.55-6.58-17.07,1.33-4.42,3.59-8.56,5.49-12.8,1-2.31,2.25-4.57,0-6.82C29.73,5.19,18.68,13.58,20.35,28.43ZM61.21,9.93c-3.69-.13-7.21,1.81-9.35,5.83-2.66,5-5.13,10.1-7.6,15.19-1.91,3.94-.59,6.9,3.26,8.53,5.82,2.47,11.7,4.8,17.65,6.94,5.6,2,10.66,0,13.56-5.24,3.37-6.12,6.59-12.33,9.76-18.57,3-6,1.27-9.63-5.45-10.57C76.1,11.07,69.1,10.67,61.21,9.93ZM18.53,63.32c4.45-2.39,13-17.66,12.61-21.45a4.68,4.68,0,0,0-2.66-4c-3.55-1.73-7.17-3.32-11.28-5.2C12.15,39.33,7.94,45.75,7.52,54Z"/></svg>