<?xml version="1.0" encoding="utf-8"?>
<!-- Generator: Adobe Illustrator 16.0.0, SVG Export Plug-In . SVG Version: 6.00 Build 0)  -->
<!DOCTYPE svg PUBLIC "-//W3C//DTD SVG 1.1//EN" "http://www.w3.org/Graphics/SVG/1.1/DTD/svg11.dtd">
<svg version="1.1" id="Layer_1" xmlns="http://www.w3.org/2000/svg" xmlns:xlink="http://www.w3.org/1999/xlink" x="0px" y="0px"
	 width="635px" height="80px" viewBox="0 0 854 108" enable-background="new 0 0 635 80" xml:space="preserve">

<g fill-rule="evenodd">
    <path fill="#000000"
                    d="M.3 54.3C.3 26 18.1 1.6 51.8 1.6c12.8 0 22.9 3.8 33.6 13.1 4 3.7 4.4 10.1.4 14.2-4 3.5-10 3.1-13.5-.4-6-6.3-12.2-8.1-20.5-8.1-22.6 0-33.5 16-33.5 33.9 0 18.2 10.7 34.9 33.5 34.9 8.4 0 16.1-3.4 22.9-9.4 4.5-3.5 10.9-1.8 13.5 1.8 2.3 3.2 3.5 8.7-1.6 13.8-10.3 9.5-22.6 11.4-34.8 11.4C16.3 106.8.3 82.6.3 54.3zM124 96.2c0 12.8-19.5 13.2-19.5.3V13.2c0-5.1 4-8.9 8.8-8.9h39c37.3 0 44.9 49.9 13.8 62.4l19.5 23.8c7.6 11.3-7.6 22.2-16.4 11L147 69.8h-23v26.4zm0-43.4h28.3c19.1 0 20.2-30.8 0-30.8H124v30.8zm69.8-34.5c-7-9.4 8.8-21.3 16.4-9.8l25.7 38.3 26-38.3c7.8-10.7 24.1 0 16.4 9.8l-33.2 48v30.4c0 12.9-19.4 12.6-19.4-.1V66.4l-31.9-48.1zm97.4-5.2c0-4.8 3.8-10.1 10-10.1h33.9c19.1 0 36.2 12.8 36.2 37.3 0 23.2-17.2 36.1-36.2 36.1h-24.5v19.4c0 6.5-4.1 10.1-9.4 10.1-4.8 0-10-3.7-10-10.1V13.1zm19.4 8.3V58h24.5c9.8 0 17.6-8.7 17.6-17.8 0-10.3-7.8-18.8-17.6-18.8h-24.5zM412 22.6h-25.7c-12.8 0-12.8-18.8 0-18.8h69.4c13.1 0 13.1 18.8 0 18.8h-24.4v74.1c0 12.8-19.4 13.1-19.4 0V22.6h.1zm111.9 84.7c-27.1 1.2-55.3-16.9-55.3-52.8 0-36.1 28.2-53.8 55.3-53.8 25.7 1.3 52.5 19.1 52.5 53.8 0 34.7-26.9 52.8-52.5 52.8zm-1.7-87.6c-16.4 0-34.3 11.6-34.3 34.8 0 23 17.9 34.8 34.3 34.8 16.9 0 34.9-11.7 34.9-34.8.1-23.2-18-34.8-34.9-34.8z"/>
            <path
                    d="M592.7 13.1c0-4.8 3.8-10.1 10-10.1h33.9c19.1 0 36.2 12.8 36.2 37.3 0 23.2-17.2 36.1-36.2 36.1H612v19.4c0 6.5-4.1 10.1-9.4 10.1-4.8 0-10-3.7-10-10.1V13.1h.1zm19.3 8.3V58h24.5c9.8 0 17.6-8.7 17.6-17.8 0-10.3-7.8-18.8-17.6-18.8H612zm63.7 84.4c-4.7-2.6-7.6-7.9-4.7-14.1l42.1-82.3c4-7.8 14.5-8.1 18.2 0l41.4 82.3c6 11.4-11.7 20.5-17 9.1l-6.5-12.9h-54.1l-6.3 12.9c-2.3 5-7.8 6-13.1 5zm63.1-37.3l-16.6-36.2-18 36.2h34.6zm27.7-50.2c-7-9.4 8.8-21.3 16.4-9.8l25.7 38.3 26-38.3c7.8-10.7 24.1 0 16.4 9.8l-33.2 48v30.4c0 12.9-19.4 12.6-19.4-.1V66.4l-31.9-48.1z"
                    fill="#029EE4"/>
        </g>

</svg>

