<svg id="Layer_1" data-name="Layer 1" xmlns="http://www.w3.org/2000/svg" viewBox="0 0 1317.76 278.18"><defs><style>.cls-1{fill:#304454;}</style></defs><title>logo_wagecan</title><polygon class="cls-1" points="571.49 120.82 552.28 15.18 519.46 15.18 501.23 120.17 486.77 15.18 447.14 15.18 481.61 224.28 515.79 224.28 535.44 114.87 555.99 224.28 590.15 224.28 624.96 15.18 586.34 15.18 571.49 120.82"/><path class="cls-1" d="M727.53,166.47V116.53c0-20.95-1.85-28.67-9-37.47-6.89-9.19-18.9-14.25-33.84-14.25-29.65,0-48.06,17.65-50.53,48.44l-.26,3.24h36.92l.13-2.87c.74-16.48,5.66-17.84,11.06-17.84,6.51,0,9.39.72,9.39,17.71v7.91c-48.62,25-61.27,38.75-61.27,66.08,0,23.65,11.82,38.93,30.12,38.93,10.85,0,21.3-5,32.57-15.68.41,3.52.71,5.8,1.64,11.07l.44,2.48h36.22l-.62-3.52C727.9,206,727.53,201.58,727.53,166.47Zm-36.13-17v34c-5.22,7.89-10.85,11.9-16.75,11.9-1.73,0-7.38-.93-7.38-12.83C667.27,169.39,673.69,160.39,691.4,149.51Z"/><path class="cls-1" d="M839,206c-8.22-5.44-18.58-6.93-43.7-8.41-15.55-.71-15.55-3.55-15.55-4.62,0-2.35,1.61-4.74,4.92-7.28,3.36.23,5,.23,7.48.23,13.72,0,25.7-5.13,33.74-14.44l.08-.1c6.57-8.3,9-17,9-32V113.79c0-8.92,0-10.79-.48-14.59,3.76-2.87,8.76-4.33,14.89-4.33h3V65.53l-3.19.2C839.8,66.32,832,71,826,79.68c-8.9-10.38-19.36-14.87-34.19-14.87-15.73,0-28.22,5-36.17,14.54-6.49,8.2-9,17.17-9,32v28c0,19.52,4.33,29.95,16.81,39-11.59,8.52-16.81,16.21-16.81,24.62,0,10,6.52,15.6,14.74,19.6-17.29,8.43-22.78,14.93-22.78,25.77,0,9,5.22,29.8,53.55,29.8,39.35,0,61.92-15.63,61.92-42.89C854.08,222.62,848.72,212.2,839,206Zm-52.35,22.3c8.53.63,13.47.92,16.46,1.1,2.5.15,3.76.22,4.79.36,12.39,1.29,13.38,4.51,13.38,8.59,0,7.38-10.19,12.53-24.79,12.53-12,0-20.1-4.67-20.1-11.62C776.41,234.12,781.84,230.5,786.67,228.29Zm4.15-134c5.43,0,10.73,1.27,10.73,16.49v29.54c0,13.48-4.1,16.18-10.73,16.18s-10.73-2.71-10.73-16.18V110.75C780.1,95.53,785.39,94.26,790.82,94.26Z"/><path class="cls-1" d="M910.67,64.81c-14.93,0-29.91,6.53-38.18,16.68-7.21,9.18-10,19.77-10,37.78V172c0,18.16,2.91,28.77,10.38,37.83,8.24,10.1,23.35,16.63,38.48,16.63,15.78,0,30.31-6.58,38.84-17.58,6.48-8.18,8.35-15.56,8.35-32.92v-10H922.41l-.32,2.64a48.31,48.31,0,0,0-.36,5.85c0,12.61-.39,13.49-1.39,15.77-1.54,3.26-5.24,5.28-9.67,5.28-6.27,0-12.07-2.18-12.07-18v-23.8h59.93V119.27c0-18-2.81-28.61-10.06-37.84C939.76,70.87,926,64.81,910.67,64.81Zm-12.07,49c0-9.35,1.46-18,12.07-18,6.09,0,11.73,2.18,11.73,18v11h-23.8Z"/><path class="cls-1" d="M1034.21,12.13c-16.8,0-31.91,6.26-41.39,17.12C981.29,42,978.65,52.47,978.65,85.47v68.82c0,32.76,2.65,43.21,14.13,55.87,9.53,10.91,24.63,17.17,41.43,17.17,20.64,0,38.26-9.45,47.1-25.21,7-11.64,8.12-20.48,8.12-41.12V146.42h-39.81v3c0,8.52-.31,23.69-1,29.25-.86,8.85-6.51,14.34-14.76,14.34-6.4,0-11.35-3.5-13.61-9.67-1.54-3.92-2.14-12.66-2.14-31.18V87.6c0-20.69,1-27.69,1.57-30,2-7.32,6.92-11.19,14.18-11.19,8.14,0,13.91,5.15,15.09,13.45.16,2.41.66,10.91.66,25.57v3h39.81v-14c0-20-1.67-27.93-8.12-38.69C1072.45,21,1054.84,12.13,1034.21,12.13Z"/><path class="cls-1" d="M1203.59,166.47V116.53c0-20.95-1.85-28.67-9-37.47-6.89-9.19-18.9-14.25-33.84-14.25-29.65,0-48.06,17.65-50.53,48.44l-.26,3.24h36.92l.13-2.87c.74-16.48,5.66-17.84,11.06-17.84,6.51,0,9.39.72,9.39,17.71v7.91c-48.62,25-61.27,38.75-61.27,66.08,0,23.65,11.82,38.93,30.12,38.93,10.85,0,21.3-5,32.57-15.68.41,3.52.71,5.8,1.64,11.07l.44,2.48h36.22l-.62-3.52C1204,206,1203.59,201.58,1203.59,166.47Zm-52.88,29c-1.73,0-7.38-.93-7.38-12.83,0-13.22,6.42-22.22,24.13-33.1v34C1162.25,191.44,1156.61,195.44,1150.71,195.44Z"/><path class="cls-1" d="M1311.8,73l-.06-.08c-4.28-5.31-10.88-8.12-19.08-8.12-11.36,0-19.61,3.65-31.48,14.54V66.94H1225V224.28h36.13V106.63c6.19-7.59,11-10.85,16.08-10.85a3.42,3.42,0,0,1,3.45,2.28l.07.29.13.27c.69,1.47.72,2.62.72,11.21V224.28h36.13V103.44C1317.76,84.93,1316.7,79.53,1311.8,73Z"/><path class="cls-1" d="M185.91,129.81a5.65,5.65,0,0,1,5.19,7.89l-11.46,26.54-24.86,57.55-7.78,18a15,15,0,0,1-27.6,0l-47.53-110L24.29,19.67a5.65,5.65,0,0,0-5.19-3.41H5.65A5.65,5.65,0,0,1,0,10.61v-5A5.65,5.65,0,0,1,5.65,0H105a5.65,5.65,0,0,1,5.19,3.41l5.55,12.85L134.17,59l20.6,47.69,8.52,19.72a5.65,5.65,0,0,0,5.19,3.41Z"/><path class="cls-1" d="M339.71,129.81a6.39,6.39,0,0,1,5.87,8.93l-10.75,24.89-32.63,75.69a15,15,0,0,1-27.6,0L227.32,129.81l-16.41-38-31-71.71a6.39,6.39,0,0,0-5.87-3.86H161.16a6.39,6.39,0,0,1-6.39-6.39V6.39A6.39,6.39,0,0,1,161.16,0h98.77a6.39,6.39,0,0,1,5.87,3.86l5.35,12.4,7.7,17.82L299.47,81.8,318.54,126a6.39,6.39,0,0,0,5.87,3.86Z"/><path class="cls-1" d="M386.32,8,357,75.78a7.27,7.27,0,0,1-13.35,0L319.86,20.65a7.27,7.27,0,0,0-6.67-4.39h-7.46A5.71,5.71,0,0,1,300,10.55V5.71A5.71,5.71,0,0,1,305.73,0h75.35A5.71,5.71,0,0,1,386.32,8Z"/></svg>