<svg id="Layer_1" data-name="Layer 1" xmlns="http://www.w3.org/2000/svg" viewBox="0 0 252.95 156.01"><defs><style>.cls-1{fill:#f69f00;}.cls-2{fill:#e30d17;}.cls-3{fill:#eb610a;}</style></defs><title>logo_mastercard</title><path class="cls-1" d="M247.49,120.13v-2.28h-.92v-.63h2.56v.63h-1v2.28Zm4.89,0v-2l-.65,1.74H251l-.65-1.74v2h-.68v-2.91h1l.72,1.86.72-1.86h1v2.91Z"/><path class="cls-2" d="M96.85,78a77.8,77.8,0,0,1,29.6-61.13,78,78,0,1,0,0,122.26A77.8,77.8,0,0,1,96.85,78Z"/><path class="cls-3" d="M96.85,78a77.8,77.8,0,0,0,29.6,61.13,77.91,77.91,0,0,0,0-122.26A77.8,77.8,0,0,0,96.85,78Z"/><path class="cls-1" d="M174.81,0a77.61,77.61,0,0,0-48.36,16.83,77.91,77.91,0,0,1,0,122.26A78,78,0,1,0,174.81,0Z"/></svg>