<svg xmlns="http://www.w3.org/2000/svg" id="Logo" width="246" height="51.75">
  <defs>
    <style>
      .cls-1, .cls-2, .cls-3 { fill-rule: evenodd; } .cls-2 { fill: #00cdbd; } .cls-3 { fill: #010101; }
    </style>
  </defs>
  <path d="M35.556 36.472c-3.15 6.17-6.907 6.068-9.954 0-1.566-3.118-11.185-22.264-16.355-33.328C7.79.024 4.677-.662 2.44.572A4.907 4.907 0 0 0 .614 7.26c1.32 2.673 15.082 33.352 20.62 40.012a12.063 12.063 0 0 0 18.69.1c5.4-6.47 8.366-15.2 11.277-20.88 2.748-5.556 7.217-5.04 9.858.1C63.97 32.265 67.13 40.657 72.23 47.37c4.062 5.346 13.58 6.21 18.59-.1 5.38-6.79 14.42-26.38 21-40.22a4.782 4.782 0 0 0-2.03-6.48c-2.234-1.235-5.247-.445-6.7 2.674-5.17 11.064-15.012 30.345-16.74 33.43-2.843 5.966-7.008 5.76-9.954-.308-1.25-2.578-5.3-10.407-8.43-16.87-4.98-10.286-19-10.39-24.076.1-3.065 6.33-5.52 11.358-8.334 16.876z" class="cls-1"/>
  <path d="M91.257 3.386c1.123 2.492 20.53 41.053 20.53 41.053 1.356 2.76.484 5.56-2.09 6.79-2.51 1.2-5.283.134-6.644-2.57L82.167 7.05a4.922 4.922 0 0 1 2.3-6.687c2.19-1.03 5.433 0 6.79 3.02z" class="cls-2"/>
  <path d="M143.4 23.463a.158.158 0 0 0-.176-.142.142.142 0 0 0-.175.148l-3.018 11.73c-.456 1.844-1.506 2.766-3.118 2.766a3.163 3.163 0 0 1-3.154-2.694l-3.677-14a1.86 1.86 0 0 1 1.717-2.553 1.79 1.79 0 0 1 1.858 1.56l3.22 13.325a.18.18 0 0 0 .35 0l3.014-12.227a3 3 0 0 1 5.955 0l3.012 12.23a.18.18 0 0 0 .35 0l3.22-13.29a1.93 1.93 0 0 1 1.82-1.596 1.85 1.85 0 0 1 1.753 2.55l-3.71 13.963c-.456 1.806-1.507 2.728-3.153 2.728s-2.7-.92-3.152-2.73zm27.5 12.37a1.866 1.866 0 0 1-1.857 1.913 1.935 1.935 0 0 1-1.856-1.913v-15.17a1.866 1.866 0 0 1 1.856-1.914 1.912 1.912 0 0 1 1.857 1.91v15.17zm23.224-15.17a1.72 1.72 0 0 1-1.75 1.772c-.14 0-.492-.07-1.087-.177a6.252 6.252 0 0 0-1.54-.142c-1.613.036-2.418.957-2.418 2.835v10.92a1.857 1.857 0 1 1-3.72 0V24.35c0-3.65 2.1-5.847 5.885-5.847a12.09 12.09 0 0 1 3.187.39 1.763 1.763 0 0 1 1.435 1.773zm25.362 6.77a2.043 2.043 0 0 1-2.242 2.268h-9.914v.43c0 2.8 1.822 4.4 4.624 4.4a12.228 12.228 0 0 0 4.03-.85 1.693 1.693 0 0 1 2.52 1.454 1.793 1.793 0 0 1-.945 1.594 10.907 10.907 0 0 1-5.68 1.24 7.658 7.658 0 0 1-8.16-7.62 30.628 30.628 0 0 1 0-4.394 7.638 7.638 0 0 1 7.985-7.445 7.552 7.552 0 0 1 5.64 2.2 7.8 7.8 0 0 1 2.136 5.74v.992zm-4.03-.71a.406.406 0 0 0 .422-.425 3.912 3.912 0 0 0-4.17-4.465c-2.94 0-4.483 1.878-4.378 4.89h8.127zm28.725 11.06a1.757 1.757 0 0 1-1.47-.71l-4.8-6.06-4.8 6.1a1.82 1.82 0 0 1-1.47.673 1.883 1.883 0 0 1-1.363-3.084l5.255-6.557-4.975-6.273a2.008 2.008 0 0 1-.49-1.276 1.9 1.9 0 0 1 1.892-1.807 1.64 1.64 0 0 1 1.4.67l4.52 5.81 4.552-5.778a1.863 1.863 0 1 1 2.84 2.41l-4.94 6.236 5.182 6.557a2.1 2.1 0 0 1 .49 1.305 1.88 1.88 0 0 1-1.82 1.776z" class="cls-3"/>
</svg>
