<svg id="Layer_1" data-name="Layer 1" xmlns="http://www.w3.org/2000/svg" viewBox="0 0 252.93 196.54"><defs><style>.cls-1{fill:#1d1d1b;}.cls-2{fill:#e30d17;}.cls-3{fill:#eb610a;}.cls-4{fill:#f69f00;}</style></defs><title>logo_mastercard</title><path class="cls-1" d="M43.34,176.42a7.66,7.66,0,0,0-2.58-1.7,8.65,8.65,0,0,0-3.27-.6,12.38,12.38,0,0,0-2,.16,8.58,8.58,0,0,0-2,.57A7.49,7.49,0,0,0,31.7,176a6.8,6.8,0,0,0-1.53,1.82,7.44,7.44,0,0,0-2.83-2.71,8.34,8.34,0,0,0-4.09-1,9.55,9.55,0,0,0-1.6.14,7.37,7.37,0,0,0-1.64.49,6.5,6.5,0,0,0-2.9,2.44v-2.53H12.76v20.69h4.39V183.88a6.16,6.16,0,0,1,.42-2.34,5.05,5.05,0,0,1,1.12-1.72,4.66,4.66,0,0,1,1.64-1,5.62,5.62,0,0,1,2-.36,4.32,4.32,0,0,1,3.44,1.4,5.93,5.93,0,0,1,1.22,4v11.51h4.39V183.88a6.16,6.16,0,0,1,.42-2.34,5.06,5.06,0,0,1,1.12-1.72,4.66,4.66,0,0,1,1.64-1,5.62,5.62,0,0,1,2-.36,4.32,4.32,0,0,1,3.44,1.4,5.93,5.93,0,0,1,1.22,4v11.51h4.39v-13A9,9,0,0,0,45,179,7.58,7.58,0,0,0,43.34,176.42Z"/><path class="cls-1" d="M66.48,177.17A8.1,8.1,0,0,0,63.8,175a8.19,8.19,0,0,0-3.82-.83,10.09,10.09,0,0,0-7.34,3.07,10.46,10.46,0,0,0-2.2,3.44,12.37,12.37,0,0,0,0,8.75,10.46,10.46,0,0,0,2.2,3.44A10.09,10.09,0,0,0,60,195.89a8.28,8.28,0,0,0,3.82-.82,8,8,0,0,0,2.68-2.2v2.48H71V174.66H66.48Zm-.17,10.47A6.29,6.29,0,0,1,65,189.74a5.91,5.91,0,0,1-2,1.39,6.72,6.72,0,0,1-5.17,0,5.83,5.83,0,0,1-2-1.43,6.31,6.31,0,0,1-1.23-2.11,7.86,7.86,0,0,1,0-5.14,6.32,6.32,0,0,1,1.23-2.11,5.84,5.84,0,0,1,2-1.43,6.71,6.71,0,0,1,5.17,0,5.92,5.92,0,0,1,2,1.39,6.3,6.3,0,0,1,1.27,2.09,7.88,7.88,0,0,1,0,5.27Z"/><path class="cls-1" d="M91.74,185a11.16,11.16,0,0,0-5.29-2l-2.14-.32q-.71-.11-1.34-.25a4.39,4.39,0,0,1-1.08-.38,2.06,2.06,0,0,1-.72-.6,1.49,1.49,0,0,1-.27-.91,2.06,2.06,0,0,1,1-1.78,5.19,5.19,0,0,1,2.88-.68,10.56,10.56,0,0,1,1.91.17,15.77,15.77,0,0,1,1.78.43,13,13,0,0,1,1.53.57,12.41,12.41,0,0,1,1.17.59l1.94-3.52a13.27,13.27,0,0,0-3.78-1.61,17.9,17.9,0,0,0-4.6-.57,12.61,12.61,0,0,0-3.56.46,8.16,8.16,0,0,0-2.69,1.32A5.74,5.74,0,0,0,76.81,178a6.27,6.27,0,0,0-.59,2.76,5.1,5.1,0,0,0,1.78,4,9.94,9.94,0,0,0,5.24,2l2.16.28a6.79,6.79,0,0,1,2.72.83,1.7,1.7,0,0,1,.86,1.46,2.06,2.06,0,0,1-1.19,1.85,7.24,7.24,0,0,1-3.52.68,13.52,13.52,0,0,1-2.28-.17,11.41,11.41,0,0,1-1.84-.46,8.89,8.89,0,0,1-1.49-.67,10.88,10.88,0,0,1-1.22-.81l-2.09,3.39a11.09,11.09,0,0,0,2.35,1.36,16.2,16.2,0,0,0,2.42.81,15.29,15.29,0,0,0,2.25.39q1.06.1,1.86.1a14.69,14.69,0,0,0,4-.5,9,9,0,0,0,3-1.39A6.17,6.17,0,0,0,93,191.84a5.9,5.9,0,0,0,.64-2.73A4.94,4.94,0,0,0,91.74,185Z"/><path class="cls-1" d="M134,177.14a8.85,8.85,0,0,0-3.09-2.22,9.79,9.79,0,0,0-4-.79,10.75,10.75,0,0,0-4.18.79,9.41,9.41,0,0,0-3.25,2.22,10.13,10.13,0,0,0-2.12,3.44,12.48,12.48,0,0,0-.76,4.43,12.29,12.29,0,0,0,.78,4.47,9.93,9.93,0,0,0,2.18,3.43,9.67,9.67,0,0,0,3.35,2.2,11.41,11.41,0,0,0,4.28.78,15.3,15.3,0,0,0,4.48-.65,11.26,11.26,0,0,0,4-2.27l-2.25-3.22a10.1,10.1,0,0,1-2.86,1.61,9,9,0,0,1-3.12.57,7.35,7.35,0,0,1-2.12-.3,5.54,5.54,0,0,1-1.84-.94,5.66,5.66,0,0,1-1.4-1.63,6.72,6.72,0,0,1-.8-2.4h15.29q0-.39.07-.82t0-.86a12.88,12.88,0,0,0-.72-4.42A10.4,10.4,0,0,0,134,177.14Zm-12.62,6.1a7.72,7.72,0,0,1,.61-2.06,5.53,5.53,0,0,1,1.11-1.62,4.66,4.66,0,0,1,1.62-1,5.88,5.88,0,0,1,2.15-.37,4.81,4.81,0,0,1,3.52,1.34,6.46,6.46,0,0,1,1.73,3.76Z"/><path class="cls-1" d="M194,177.17a8.09,8.09,0,0,0-2.68-2.21,8.19,8.19,0,0,0-3.82-.83,10.09,10.09,0,0,0-7.34,3.07,10.46,10.46,0,0,0-2.2,3.44,12.36,12.36,0,0,0,0,8.75,10.45,10.45,0,0,0,2.2,3.44,10.09,10.09,0,0,0,7.34,3.07,8.28,8.28,0,0,0,3.82-.82,8,8,0,0,0,2.68-2.2v2.48h4.51V174.66H194Zm-.17,10.47a6.29,6.29,0,0,1-1.27,2.09,5.91,5.91,0,0,1-2,1.39,6.71,6.71,0,0,1-5.17,0,5.84,5.84,0,0,1-2-1.43,6.32,6.32,0,0,1-1.23-2.11,7.86,7.86,0,0,1,0-5.14,6.32,6.32,0,0,1,1.23-2.11,5.84,5.84,0,0,1,2-1.43,6.71,6.71,0,0,1,5.17,0,5.92,5.92,0,0,1,2,1.39,6.3,6.3,0,0,1,1.27,2.09,7.89,7.89,0,0,1,0,5.27Z"/><path class="cls-1" d="M111.09,191.23a6.08,6.08,0,0,1-2.15.41,3.72,3.72,0,0,1-1.28-.22,2.66,2.66,0,0,1-1-.68,3.3,3.3,0,0,1-.7-1.2,5.35,5.35,0,0,1-.26-1.77v-9h7.25v-4.1h-7.25V168.4h-4.53v6.26H97v4.1h4.12v9.09q0,4.12,2,6.08a7.4,7.4,0,0,0,5.47,2,9.75,9.75,0,0,0,3.53-.6,14.91,14.91,0,0,0,1.93-.91l-1.54-3.78A11.54,11.54,0,0,1,111.09,191.23Z"/><path class="cls-1" d="M151.84,174.12a8.27,8.27,0,0,0-3.43.69,7.3,7.3,0,0,0-2.57,2.56v-2.71h-4.1v20.69h4.14V184a7,7,0,0,1,.37-2.35,5.08,5.08,0,0,1,1-1.75,4.2,4.2,0,0,1,1.55-1.08,5.25,5.25,0,0,1,2-.37,8.88,8.88,0,0,1,1.77.19,7.42,7.42,0,0,1,.91.24l1.33-4.32a8.25,8.25,0,0,0-1.11-.28A11.31,11.31,0,0,0,151.84,174.12Z"/><path class="cls-1" d="M214.58,174.12a8.27,8.27,0,0,0-3.43.69,7.3,7.3,0,0,0-2.57,2.56v-2.71h-4.1v20.69h4.14V184a7,7,0,0,1,.37-2.35,5.08,5.08,0,0,1,1-1.75,4.2,4.2,0,0,1,1.55-1.08,5.25,5.25,0,0,1,2-.37,8.88,8.88,0,0,1,1.77.19,7.42,7.42,0,0,1,.91.24l1.33-4.32a8.25,8.25,0,0,0-1.11-.28A11.31,11.31,0,0,0,214.58,174.12Z"/><path class="cls-1" d="M235.66,166.26v10.91A8.1,8.1,0,0,0,233,175a8.19,8.19,0,0,0-3.82-.83,10.09,10.09,0,0,0-7.34,3.07,10.46,10.46,0,0,0-2.2,3.44,12.36,12.36,0,0,0,0,8.75,10.45,10.45,0,0,0,2.2,3.44,10.09,10.09,0,0,0,7.34,3.07,8.28,8.28,0,0,0,3.82-.82,8,8,0,0,0,2.68-2.2v2.48h4.51v-29.1Zm-.17,21.39a6.29,6.29,0,0,1-1.27,2.09,5.91,5.91,0,0,1-2,1.39,6.71,6.71,0,0,1-5.17,0,5.84,5.84,0,0,1-2-1.43,6.32,6.32,0,0,1-1.23-2.11,7.86,7.86,0,0,1,0-5.14,6.32,6.32,0,0,1,1.23-2.11,5.84,5.84,0,0,1,2-1.43,6.71,6.71,0,0,1,5.17,0,5.92,5.92,0,0,1,2,1.39,6.29,6.29,0,0,1,1.27,2.09,7.88,7.88,0,0,1,0,5.27Z"/><path class="cls-1" d="M162.64,180.22a6.08,6.08,0,0,1,2.05-1.36,6.72,6.72,0,0,1,2.57-.49h0a8,8,0,0,1,2.83.49,6.78,6.78,0,0,1,2.19,1.31l2.17-3.61a11.06,11.06,0,0,0-2.75-1.6,12.26,12.26,0,0,0-8.88,0,10.7,10.7,0,0,0-3.52,2.29,10.57,10.57,0,0,0-2.32,3.44,11.49,11.49,0,0,0,0,8.64,10.57,10.57,0,0,0,2.32,3.44,10.69,10.69,0,0,0,3.52,2.29,12.26,12.26,0,0,0,8.88,0,11.05,11.05,0,0,0,2.75-1.6l-2.17-3.61a6.79,6.79,0,0,1-2.19,1.31,8.05,8.05,0,0,1-2.83.49h0a6.72,6.72,0,0,1-2.57-.49,6.07,6.07,0,0,1-2.05-1.36,6.34,6.34,0,0,1-1.36-2.09,7.53,7.53,0,0,1,0-5.38A6.34,6.34,0,0,1,162.64,180.22Z"/><path class="cls-1" d="M249.68,192.32a2.15,2.15,0,0,1,.85.17,2.2,2.2,0,0,1,.69.45,2.13,2.13,0,0,1,.46.67,2.07,2.07,0,0,1,0,1.64,2.15,2.15,0,0,1-.46.67,2.18,2.18,0,0,1-.69.46,2.15,2.15,0,0,1-.85.17,2.21,2.21,0,0,1-.86-.17,2.17,2.17,0,0,1-.69-.46,2.11,2.11,0,0,1-.46-.67,2.09,2.09,0,0,1,0-1.64,2.09,2.09,0,0,1,.46-.67,2.21,2.21,0,0,1,1.55-.62Zm0,3.64a1.48,1.48,0,0,0,.59-.12,1.51,1.51,0,0,0,.48-.33,1.53,1.53,0,0,0,.32-.48,1.57,1.57,0,0,0,0-1.19,1.5,1.5,0,0,0-.32-.48,1.53,1.53,0,0,0-.48-.32,1.48,1.48,0,0,0-.59-.12,1.52,1.52,0,0,0-.6.12,1.56,1.56,0,0,0-.49.32,1.48,1.48,0,0,0-.32.48,1.53,1.53,0,0,0,.32,1.67,1.53,1.53,0,0,0,.49.33A1.52,1.52,0,0,0,249.68,196Zm.12-2.46a.87.87,0,0,1,.58.17.57.57,0,0,1,.2.46.52.52,0,0,1-.14.37.73.73,0,0,1-.42.19l.58.67H250l-.52-.65h-.06v.65h-.53v-1.87Zm-.4.46v.34h.39a.38.38,0,0,0,.19,0,.14.14,0,0,0,.07-.13A.15.15,0,0,0,250,194a.35.35,0,0,0-.19,0Z"/><path class="cls-2" d="M96.72,78a77.8,77.8,0,0,1,29.6-61.13,78,78,0,1,0,0,122.26A77.8,77.8,0,0,1,96.72,78Z"/><path class="cls-3" d="M96.72,78a77.8,77.8,0,0,0,29.6,61.13,77.91,77.91,0,0,0,0-122.26A77.8,77.8,0,0,0,96.72,78Z"/><path class="cls-4" d="M247.36,120.13v-2.28h-.92v-.63H249v.63H248v2.28Zm4.89,0v-2l-.65,1.74h-.72l-.65-1.74v2h-.68v-2.91h1l.72,1.86.72-1.86h1v2.91Z"/><path class="cls-4" d="M174.68,0a77.61,77.61,0,0,0-48.36,16.83,77.91,77.91,0,0,1,0,122.26A78,78,0,1,0,174.68,0Z"/></svg>