<svg xmlns="http://www.w3.org/2000/svg" viewBox="0 0 575.5 166.11"><defs><style>.cls-1{fill:#020202;}.cls-2{fill:#fc3d31;}</style></defs><title>logo_xapo</title><g id="Layer_2" data-name="Layer 2"><g id="Layer_1-2" data-name="Layer 1"><path class="cls-1" d="M346.52,102v64.07H308.59V4H346.3V16.65A36.52,36.52,0,0,1,368.49,1.51c30-7.31,60.68,14.61,65,46.46,2.5,18.36-1,35.12-13.2,49.54a52.77,52.77,0,0,1-56.68,15.87C357.35,111.3,352,107.77,346.52,102Zm-1.09-44c0,14.62,9.72,24.29,24.49,24.31s24.6-9.76,24.59-24.26-10-24.41-24.54-24.43S345.46,43.53,345.44,58Z"/><path class="cls-1" d="M245.5,13.43V4.05h38V111.91H245.76V99.86a35.33,35.33,0,0,1-22.15,14.7c-31,7-61.39-15.24-65.11-47.48-1.55-13.39,0-26.2,6.32-38.28C182.22-4.61,225.31-7.87,245.5,13.43Zm1.22,44.69c0-14.59-9.86-24.43-24.44-24.45S197.69,43.6,197.66,58s9.83,24.33,24.52,24.35S246.74,72.72,246.72,58.12Z"/><path class="cls-1" d="M510,115.69a70.67,70.67,0,0,1-24.57-3.62c-28.09-9.36-42.21-30.69-40-60.32,1.85-25.16,21.7-45.48,49.25-50.17C510-1,525.22-.32,539.82,5.66c24.19,9.91,36.69,29.7,35.61,56.15-1,23.84-16.66,43.1-41.28,50.61A73.45,73.45,0,0,1,510,115.69ZM534.76,58c-.06-14.56-9.95-24.36-24.56-24.33s-24.52,10.07-24.52,24.47,9.95,24.24,24.66,24.22S534.82,72.61,534.76,58Z"/><path class="cls-2" d="M97.34,3.9H147L102.48,53.44l53.68,58.5H105.62L78.11,80.23,50.51,112H0L53.74,53.45,10.15,4H59L78.1,26Z"/></g></g></svg>