<svg id="Layer_1" data-name="Layer 1" xmlns="http://www.w3.org/2000/svg" viewBox="0 0 603.89 101.03"><defs><style>.cls-1{fill:#d0262d;}.cls-2{fill:#070707;}</style></defs><title>logo_anxpro</title><path class="cls-1" d="M97.52,2.41V98.25H0V2.41ZM20.35,30.84c1.48.68,2.81,1.34,4.17,1.92,10.78,4.61,13.33,10.52,9,21.36C31.93,58,30,61.68,28.14,65.37c-2,4-1.5,7.5,1.69,10.42,4.9,4.49,9.87,8.94,15.06,13.09,4.49,3.58,8.77,2.49,11.49-2.57,3.07-5.71,6-11.48,9-17.23,3.08-5.9,1.63-10.55-4.35-13.61-4.88-2.5-10-4.58-14.66-7.42-6.74-4.1-8.85-9.55-6.58-17.07,1.33-4.42,3.59-8.56,5.49-12.8,1-2.31,2.25-4.57,0-6.82C29.73,7.6,18.68,16,20.35,30.84Zm40.85-18.5c-3.69-.13-7.21,1.81-9.35,5.83-2.66,5-5.13,10.1-7.6,15.19-1.91,3.94-.59,6.9,3.26,8.53,5.82,2.47,11.7,4.8,17.65,6.94,5.6,2,10.66,0,13.56-5.24,3.37-6.12,6.59-12.33,9.76-18.57,3-6,1.27-9.63-5.45-10.57C76.1,13.48,69.1,13.08,61.21,12.34ZM18.53,65.72c4.45-2.39,13-17.66,12.61-21.45a4.68,4.68,0,0,0-2.66-4c-3.55-1.73-7.17-3.32-11.28-5.2-5.07,6.63-9.27,13.05-9.69,21.3Z"/><path class="cls-1" d="M226.09,98.32H207.88V3h17.68L266.4,65.42V2.85h18.24V98.2H267L226.09,35.79Z"/><path class="cls-2" d="M553.85,101c-28.47,0-50.15-21.79-50.15-50.37S526,.28,554.43,0c25.7-.25,50.28,23.62,49.44,51.55S581.91,101,553.85,101Zm-.2-83c-18.09,0-31.55,14-31.58,32.79,0,18.47,13.73,32.47,31.91,32.48,17.67,0,31.39-14.17,31.41-32.48S571.51,18,553.65,18Z"/><path class="cls-2" d="M481.19,56.34,503.5,98.19H483.44L462,58.16l-1.38.4V98.3H442.37V2.54c13.17.57,26.53-1.64,39.51,2.13C492,7.6,497.38,15.1,498.76,25.41c1.53,11.39-1,21.21-11.48,27.64C485.46,54.17,483.51,55.09,481.19,56.34ZM460.58,40.24c6.76-1.07,14.07,2,19.21-4.32a8.61,8.61,0,0,0,.16-10.72c-5-7-12.48-4.06-19.37-5Z"/><path class="cls-1" d="M137.75,79.17l-7.68,19.08H111L147.86,2.8h18.89l36.82,95.43h-19L177,79.17Zm19.69-51.08-12.8,32.74h25.5Z"/><path class="cls-1" d="M371.82,98.3H353.15L331.24,65.05,309.3,98.31H288.51l32.3-49.16L290.5,2.89h20.66l20.05,30.38L351.23,3H371.8l-.18,1.53c-.53.39-1.23.66-1.57,1.18-9.46,14.43-18.89,28.88-28.42,43.47,7.43,11.35,14.68,22.67,22.2,33.79,2.46,3.64,4,8.06,7.88,10.63Z"/><path class="cls-2" d="M375.62,4.55,375.8,3c12.11-.57,24.27-1.44,36.26.83,14.34,2.72,21.61,12.74,21.07,28.09-.48,13.56-9.74,23.63-23.51,25.31-4.9.6-9.86.76-15.18,1.15V98.3H375.83q-.05-2.34-.11-4.68Zm18.82,35.7c7-1.22,14.76,2.52,19.61-4.91a8.56,8.56,0,0,0-.55-10.68c-5.23-6-12.29-3.88-19.06-4.2Z"/></svg>