<svg id="Layer_1" data-name="Layer 1" xmlns="http://www.w3.org/2000/svg" viewBox="0 0 338.09 76.86"><defs><style>.cls-1,.cls-2{fill:#1d4477;}.cls-1{fill-rule:evenodd;}</style></defs><title>logo_bitwala</title><path class="cls-1" d="M114.52,49.23a4.6,4.6,0,0,1-2.1,4.17,10.68,10.68,0,0,1-5.78,1.34H93.41V43.58h12.87q4.34,0,6.29,1.48a4.78,4.78,0,0,1,2,4ZM111.7,28.94A4.38,4.38,0,0,1,109.53,33a11.58,11.58,0,0,1-5.85,1.27H93.41V23.58h11a9.28,9.28,0,0,1,5.42,1.34,4.47,4.47,0,0,1,1.88,3.87ZM125.58,50.6v-.15q0-5.07-2.53-7.93A17.08,17.08,0,0,0,116.11,38a14.19,14.19,0,0,0,2.57-1.74,11.61,11.61,0,0,0,2.1-2.36,12,12,0,0,0,1.45-3,12.45,12.45,0,0,0,.54-3.84v-.14a11.6,11.6,0,0,0-4.44-9.56q-4.44-3.55-12.25-3.55H82.57V64.51h24.07a32.24,32.24,0,0,0,7.77-.87,17.89,17.89,0,0,0,6-2.61,11.82,11.82,0,0,0,3.83-4.35A13.17,13.17,0,0,0,125.58,50.6Z"/><path class="cls-1" d="M132.78,64.51h11V25.68h-11Zm-.29-43.11h11.56V11.62H132.49Z"/><path class="cls-1" d="M175.86,62.92V54.08a11.16,11.16,0,0,1-5.42,1.38q-3.54,0-3.54-3.76V35.1H176V25.68H166.9V15.75h-11v9.93h-4.63V35.1h4.63V53.5a16.09,16.09,0,0,0,.83,5.61,9.26,9.26,0,0,0,2.31,3.59,8.22,8.22,0,0,0,3.54,1.92,17.92,17.92,0,0,0,4.59.54,16.45,16.45,0,0,0,8.67-2.25"/><polygon class="cls-1" points="241.01 25.68 230.1 25.68 223.74 49.3 216.36 25.54 206.9 25.54 199.59 49.23 193.38 25.68 182.25 25.68 194.18 64.8 204.01 64.8 211.59 40.97 219.04 64.8 228.94 64.8 241.01 25.68"/><path class="cls-1" d="M268.37,50.82A6,6,0,0,1,266,55.75a9.7,9.7,0,0,1-6.25,1.88,7.08,7.08,0,0,1-4.34-1.23,4.08,4.08,0,0,1-1.66-3.48v-.14a4.53,4.53,0,0,1,2-4,9.82,9.82,0,0,1,5.56-1.38,17.45,17.45,0,0,1,3.79.4,17,17,0,0,1,3.22,1.05Zm10.41,13.69V42q0-7.89-4.12-12.31T261.5,25.25a34.78,34.78,0,0,0-8.39.87,43.26,43.26,0,0,0-6.65,2.24l2.75,8.41a37.29,37.29,0,0,1,5.09-1.56,25.84,25.84,0,0,1,5.6-.54q4.12,0,6.22,1.81a6.61,6.61,0,0,1,2.1,5.29v.65a32.74,32.74,0,0,0-4.3-1.16,27.12,27.12,0,0,0-5.17-.43,24.43,24.43,0,0,0-6.33.76,14.29,14.29,0,0,0-4.91,2.28,10.48,10.48,0,0,0-3.22,3.84,12.2,12.2,0,0,0-1.16,5.51v.14a11.77,11.77,0,0,0,1,5.11A10.94,10.94,0,0,0,247,62.19a12.14,12.14,0,0,0,4.23,2.28,17.11,17.11,0,0,0,5.17.76,15.94,15.94,0,0,0,6.87-1.34,15.27,15.27,0,0,0,4.84-3.59v4.2Z"/><rect class="cls-2" x="286.1" y="11.62" width="10.99" height="52.89"/><path class="cls-1" d="M327.68,50.82a6,6,0,0,1-2.35,4.93,9.71,9.71,0,0,1-6.25,1.88,7.09,7.09,0,0,1-4.34-1.23,4.08,4.08,0,0,1-1.66-3.48v-.14a4.53,4.53,0,0,1,2-4,9.83,9.83,0,0,1,5.57-1.38,17.46,17.46,0,0,1,3.79.4,17,17,0,0,1,3.22,1.05Zm10.41,13.69V42q0-7.89-4.12-12.31t-13.16-4.42a34.82,34.82,0,0,0-8.39.87,43.42,43.42,0,0,0-6.65,2.24l2.75,8.41a37.16,37.16,0,0,1,5.1-1.56,25.8,25.8,0,0,1,5.6-.54q4.12,0,6.22,1.81a6.61,6.61,0,0,1,2.1,5.29v.65a32.74,32.74,0,0,0-4.3-1.16,27,27,0,0,0-5.16-.43,24.42,24.42,0,0,0-6.33.76,14.31,14.31,0,0,0-4.92,2.28,10.51,10.51,0,0,0-3.22,3.84,12.25,12.25,0,0,0-1.16,5.51v.14a11.74,11.74,0,0,0,1,5.11,10.93,10.93,0,0,0,2.86,3.73,12.11,12.11,0,0,0,4.23,2.28,17.1,17.1,0,0,0,5.17.76,16,16,0,0,0,6.87-1.34,15.26,15.26,0,0,0,4.84-3.59v4.2Z"/><path class="cls-1" d="M21.27,30.08a18,18,0,1,1-4.83,12.28V10.57L0,0V42.36A34.42,34.42,0,1,0,21.27,10.47Z"/></svg>