<svg id="Logo" xmlns="http://www.w3.org/2000/svg" viewBox="0 0 112.45 51.78"><defs><style>.cls-1{fill:#00cdbd;}</style></defs><title>logo_wirex_small</title><path d="M35.59,36.5c-3.15,6.17-6.91,6.07-10,0C24.07,33.38,14.45,14.23,9.28,3.17,7.82,0,4.71-.64,2.47.6A4.91,4.91,0,0,0,.64,7.28C2,10,15.73,40.64,21.26,47.3A12.06,12.06,0,0,0,40,47.4c5.4-6.47,8.37-15.2,11.28-20.88,2.75-5.56,7.22-5,9.86.1C64,32.29,67.16,40.68,72.26,47.39c4.06,5.35,13.58,6.21,18.59-.1,5.38-6.79,14.42-26.38,21-40.22a4.78,4.78,0,0,0-2-6.46l0,0c-2.23-1.24-5.25-.44-6.7,2.67C98,14.33,88.11,33.61,86.38,36.7c-2.84,6-7,5.76-10-.31C75.18,33.81,71.13,26,68,19.52a13.2,13.2,0,0,0-24.08.1C40.86,26,38.4,31,35.59,36.5Z"/><path class="cls-1" d="M91.29,3.41c1.12,2.49,20.53,41.05,20.53,41.05,1.36,2.76.48,5.56-2.09,6.79s-5.28.13-6.64-2.57L82.2,7.07A4.92,4.92,0,0,1,84.36.46L84.5.39c2.19-1,5.43,0,6.79,3Z"/></svg>