<svg id="Layer_1" data-name="Layer 1" xmlns="http://www.w3.org/2000/svg" viewBox="0 0 247.38 215.49"><defs><style>.cls-1{fill:#049961;}.cls-2{fill:#03364e;}</style></defs><title>logo_advcash_small</title><path class="cls-1" d="M224.16,208.5l-96-205.67a4.92,4.92,0,0,0-8.91,0l-96,205.67a4.91,4.91,0,0,0,4.45,7H59.11a4.92,4.92,0,0,0,4.49-2.92l43.47-97.93a18.18,18.18,0,0,1,33.24,0l43.47,97.93a4.92,4.92,0,0,0,4.49,2.92h31.43a4.91,4.91,0,0,0,4.45-7Z"/><path class="cls-2" d="M246.8,76.55,233.11,99.76a4.14,4.14,0,0,1-3.56,2H17.83a4.14,4.14,0,0,1-3.56-2L.58,76.55a4.14,4.14,0,0,1,3.56-6.24H243.23A4.14,4.14,0,0,1,246.8,76.55Z"/><path class="cls-2" d="M216.17,128.49,202.48,151.7a4.14,4.14,0,0,1-3.56,2H48.46a4.14,4.14,0,0,1-3.56-2L31.21,128.49a4.14,4.14,0,0,1,3.56-6.24H212.6A4.14,4.14,0,0,1,216.17,128.49Z"/></svg>