<svg id="Layer_1" data-name="Layer 1" xmlns="http://www.w3.org/2000/svg" viewBox="0 0 386.79 248.86"><defs><style>.cls-1{fill:#304454;}</style></defs><title>logo_wagecan_small</title><path class="cls-1" d="M185.91,129.81a5.65,5.65,0,0,1,5.19,7.89l-11.46,26.54-24.86,57.55-7.78,18a15,15,0,0,1-27.6,0l-47.53-110L24.29,19.67a5.65,5.65,0,0,0-5.19-3.41H5.65A5.65,5.65,0,0,1,0,10.61v-5A5.65,5.65,0,0,1,5.65,0H105a5.65,5.65,0,0,1,5.19,3.41l5.55,12.85L134.17,59l20.6,47.69,8.52,19.72a5.65,5.65,0,0,0,5.19,3.41Z"/><path class="cls-1" d="M339.71,129.81a6.39,6.39,0,0,1,5.87,8.93l-10.75,24.89-32.63,75.69a15,15,0,0,1-27.6,0L227.32,129.81l-16.41-38-31-71.71a6.39,6.39,0,0,0-5.87-3.86H161.16a6.39,6.39,0,0,1-6.39-6.39V6.39A6.39,6.39,0,0,1,161.16,0h98.77a6.39,6.39,0,0,1,5.87,3.86l5.35,12.4,7.7,17.82L299.47,81.8,318.54,126a6.39,6.39,0,0,0,5.87,3.86Z"/><path class="cls-1" d="M386.32,8,357,75.78a7.27,7.27,0,0,1-13.35,0L319.86,20.65a7.27,7.27,0,0,0-6.67-4.39h-7.46A5.71,5.71,0,0,1,300,10.55V5.71A5.71,5.71,0,0,1,305.73,0h75.35A5.71,5.71,0,0,1,386.32,8Z"/></svg>