<svg id="Layer_1" data-name="Layer 1" xmlns="http://www.w3.org/2000/svg" viewBox="0 0 999.23 215.49"><defs><style>.cls-1{fill:#049961;}.cls-2{fill:#03364e;}</style></defs><title>logo_advcash</title><path class="cls-1" d="M717.91,97.89A96.55,96.55,0,0,1,712,76.27a87.47,87.47,0,0,1,49.81-5.32c16.21,2.8,27.68,10.84,32.6,26.88,3,9.93,3.49,20.29,3.85,30.59.47,13.46-.63,27,.82,40.42a31.74,31.74,0,0,0,5.39,15c4.7-6.16,6.11-13.29,9.92-19.77,6.19,2.47,11.36,6.82,17.92,8.23a47.83,47.83,0,0,0,15.87.75c4.67-.56,8.48-3,10-7.91,1.63-5.33-.1-10-3.77-13.72-5.72-5.8-13.32-8.57-20.57-11.89-8.49-3.89-16.34-8.55-22.53-15.95-11.79-14.08-10.29-41.69,14-50.44,17.54-6.31,34.69-4.21,51.48,3a29.49,29.49,0,0,1,3.7,2.36c-2.22,7.13-4.26,14.22-8.14,21.3-6-3.91-12.18-6.66-19.1-7.28-4-.36-7.91-.68-11.85.63a11.17,11.17,0,0,0-8,9.35c-.71,4.4,1.64,7.7,5.13,10.12,8.28,5.74,17.87,8.82,26.91,13,24.83,11.47,26.86,38.19,17,53.2-8.45,12.81-21.75,16.66-36.4,17.11-13.14.41-26-.48-37.28-7.77-10.75,11.78-27.52,10.83-35.8-4.51-5.58,5.18-11.81,9.27-19.26,10.8-22.45,4.61-45.42-.05-52.31-21.55-7.83-24.44,2.87-47.89,29.95-55.59,12.52-3.56,25.34-5.28,38.31-2.51,2-7.86-4.34-17.08-12.71-19.31-11.66-3.1-23.05-2-34.39,1.53A42.1,42.1,0,0,1,717.91,97.89Zm52.44,39.7c-10.26-4.61-30.85-1.15-38.26,6.12-7.25,7.1-8.88,25.73,6,29,6.93,1.52,14.28,1.55,21-1.87a18.68,18.68,0,0,0,9.3-10C771.28,153.3,771.09,145.53,770.36,137.59Z"/><path class="cls-1" d="M921.88,193.88h-27.1V25.77l27.45-6.83V78.19c7.58-3.95,13.95-7.15,21.31-8.08,28.67-3.64,52.17,9.58,54.67,40.76,1.93,24.09.47,48.27.73,72.41,0,3.41.86,7-.88,10.62h-25.9c-1.7-2.06-1.17-4.15-1.17-6.08-.06-22.32-.21-44.64,0-67,.1-11.38-3.83-20.34-14.43-25.12-10-4.51-23.63-.92-31.71,7.33-2.53,2.58-2.55,5.63-2.55,8.79q0,37.48,0,75C922.23,188.94,922,191.07,921.88,193.88Z"/><path class="cls-1" d="M690.32,161.69c4.52,7,6.81,14.72,10.66,22.2-6.68,5-13.73,9-21.8,10.39-14.87,2.47-29.91,3.38-44.44-1.7-17.46-6.1-28.53-18.7-33.17-36.41-4.85-18.53-4.53-37.07,4.31-54.5,9.85-19.44,26.57-29,47.84-31.53,16.49-2,31.7.76,45.73,11-2.46,8-7.49,14.39-11.08,22.16a40.22,40.22,0,0,0-27.26-9.57,32.43,32.43,0,0,0-31.87,27.1c-1.92,10.63-1.92,21.17,1.83,31.5,4.27,11.74,12.92,17.9,25.07,19C672.09,172.77,678.26,170.9,690.32,161.69Z"/><path class="cls-2" d="M605.38,71.61c-9.23-.16-18.48-1-27.69.47a6.3,6.3,0,0,0-1.11,1.39q-10.9,26.65-21.75,53.32c-2.32,5.67-4.73,11.29-7.12,17-2.15-1-2.15-2.51-2.66-3.69-4.25-10-6.93-20.67-12-30.35a4.54,4.54,0,0,0-1.33-3.71A146.56,146.56,0,0,0,521,77.75l-.64-2.66c.38-.93,0-1.49-.89-1.8-.64-2.52-2.7-2-4.44-2-7.43,0-14.87,0-22.3,0-1.15-1.63-.82-3.5-.82-5.3,0-13.79,0-27.58,0-41.36,0-1.74.63-3.69-1.36-5.4-2.43,0-4.82,1-7.19,2.08l-2.72.5a9.18,9.18,0,0,0-5.37,1.52l-2.58.48a22.63,22.63,0,0,0-8.7,2.47c0,14.37,0,28.65,0,42.92,0,2.3.07,4.39-2.91,4.75l-2.36-.74a3.44,3.44,0,0,0-3.55-1.44l-2.6-.43a15.94,15.94,0,0,0-8.24-1.68,22.92,22.92,0,0,0-9.79.14,13.08,13.08,0,0,0-8.27,1.5,5.22,5.22,0,0,0-4.63,1.27,2.13,2.13,0,0,0-2.42.75c-4.11.52-7.39,2.86-10.6,5.13C386.25,94.36,380,117,381.93,143c1,13.16,4,25.63,13.14,35.81a11.08,11.08,0,0,0,5.41,5.61.45.45,0,0,0,.48.48A37,37,0,0,0,422.64,195l3.73.33c6.07,1.79,12.14,1.4,18.22,0l2.62-.44a24.31,24.31,0,0,0,11.12-3.79l2.9-2c3.68-.42,2.12,3.57,3.91,4.7h27V84.22c2.51,1,2.64,2.68,3.22,4,8.48,19.67,16.9,39.37,25.42,59,6.73,15.51,13.57,31,20.37,46.44l.7,1.26c3.42,2.13,6.89,2,10.4.21a.56.56,0,0,0,.5-.66A335.21,335.21,0,0,0,568,159.87l.72-1.18c2-3.85,4.23-7.62,5-12l1-1.95c1.41-2.14,2.84-4.28,2.91-7l1.11-2.1a13.08,13.08,0,0,0,2.95-6.93l1-1.95c5.29-11.23,10.92-22.3,14.78-34.15l1.08-1.83c2.67-5.65,5.37-11.28,8-17C607.14,72.72,607.38,71.47,605.38,71.61ZM460.2,167.67c-16.93,10.33-47.34,2.94-49.06-26.73-.52-9-.69-18,2.87-26.57,8.68-20.81,31-27,49.5-13.47,1.3,3.58.64,7.1.66,10.56.08,16.32,0,32.64.16,49C464.36,163.83,463.11,165.89,460.2,167.67Z"/><path class="cls-2" d="M373,119.3a79.14,79.14,0,0,0-4.59-24.41c-4.34-12.32-13.5-19.45-25.84-22.64-18.9-4.89-37.38-3.65-56.11,4.23l6.12,21.76c2.22-.51,3.68-.73,5.06-1.18,11-3.6,22-4.73,33.33-1.74,9,2.37,14.26,9.21,13.94,19.63-10.6-3-20.78-1.36-30.88.39-20,3.48-38.19,15.65-39.8,39.33-1.2,17.66,4.7,30.8,19.32,37,19.4,8.27,37.86,6.16,54.81-8.14,4.87,10.38,13.11,14.45,24.36,12a12.4,12.4,0,0,0,9.68-8.45c-7.85-7.61-8.88-17.42-9.11-27.3C372.95,146.29,373.3,132.79,373,119.3Zm-28.86,39.18c-4,13.86-24.86,20.4-36.51,11.69-7.3-5.45-7.93-17.89-1.31-25.49,7-8,29-11.91,38.93-6.74C345.87,144.73,346.09,151.74,344.12,158.48Z"/><path class="cls-1" d="M224.16,208.5l-96-205.67a4.92,4.92,0,0,0-8.91,0l-96,205.67a4.91,4.91,0,0,0,4.45,7H59.11a4.92,4.92,0,0,0,4.49-2.92l43.47-97.93a18.18,18.18,0,0,1,33.24,0l43.47,97.93a4.92,4.92,0,0,0,4.49,2.92h31.43a4.91,4.91,0,0,0,4.45-7Z"/><path class="cls-2" d="M246.8,76.55,233.11,99.76a4.14,4.14,0,0,1-3.56,2H17.83a4.14,4.14,0,0,1-3.56-2L.58,76.55a4.14,4.14,0,0,1,3.56-6.24H243.23A4.14,4.14,0,0,1,246.8,76.55Z"/><path class="cls-2" d="M216.17,128.49,202.48,151.7a4.14,4.14,0,0,1-3.56,2H48.46a4.14,4.14,0,0,1-3.56-2L31.21,128.49a4.14,4.14,0,0,1,3.56-6.24H212.6A4.14,4.14,0,0,1,216.17,128.49Z"/></svg>