<svg id="Layer_1" data-name="Layer 1" xmlns="http://www.w3.org/2000/svg" viewBox="0 0 513.91 125.68"><defs><style>.cls-1{fill:#224f6c;}.cls-2{fill:#f6b034;}</style></defs><title>accent_logo_spectrocoin</title><path class="cls-1" d="M0,52.32l2.15-7,21.47,5.77c9.56,2.57,19.13,5.1,28.68,7.71C62,61.5,69.13,67,72.49,76.94c1.92,5.67,4.45,11.13,6.71,16.67,4.06.44,7.79,1.41,11,4.38l-4.35,4.76c-3.24-2.59-7.1-2.64-11.17-2.79L66.36,79.57c-5.66,3.61-11.38,4-16.75-.16-5.1-4-6.32-9.35-4.49-15.7L7,53.49C5.32,60.2,12,67.7,19.28,67.17l.44-3.54,6.37,1.66c-.71,11.4,2.94,21,11.78,28.12s18.93,8.78,30,5.71c.55.83,1.09,1.68,1.65,2.51a16.21,16.21,0,0,0,16.93,6.79,3,3,0,0,0,1.39-.56c4-3.93,8-7.89,12-11.86-2.2-5.4-4.12-10.69-6.48-15.78C90.85,74.87,90,69.28,89.4,63.47c-1.55-14.64-16.67-27.38-31-26.58a2.2,2.2,0,0,0-.33.42c-4.14,9-11.92,13.13-21.69,11.47a96.62,96.62,0,0,1-11.76-2.7A18.79,18.79,0,0,1,11.2,26.86,19.1,19.1,0,0,1,27.08,9.33Q53.24,4.81,79.39.19C80,.08,80.63.06,81.3,0,77,16.08,65.66,27.13,49.81,30c-6.4,1.16-12.81,2.24-19.36,3.38l-1.13-6.46c5.8-1,11.43-2.16,17.11-3,9.07-1.33,16.66-5.16,22.3-12.51.65-.85,1.23-1.77,2.07-3L56,11c-9.26,1.62-18.5,3.27-27.76,4.85A12.44,12.44,0,0,0,17.77,27.45a12.15,12.15,0,0,0,8.74,12.3,84.92,84.92,0,0,0,12.91,2.82c5.32.74,11.21-3.17,12.76-8.41.34-1.16.62-2.34,1-3.71a39.07,39.07,0,0,1,28.82,8l48.14-8.43C125.93,44.38,117.51,54.51,103,59.2,102.6,58,102.28,57,102,56s-.56-2-.88-3.09a32.08,32.08,0,0,0,18.33-14.28L87.79,44.17A40.39,40.39,0,0,1,95,58a28.53,28.53,0,0,1,1.36,8.3,19,19,0,0,0,1.7,8c3.2,7.66,6.28,15.36,9.51,23.3-5.35,5.3-10.67,10.75-16.21,16-1.64,1.55-4.15,1.57-6.37,1.73a22.6,22.6,0,0,1-19.34-7.84l-.72-.8c-22.66,3.59-41.88-11.43-45.21-32.56-1.73-.24-3.52-.34-5.23-.76A19,19,0,0,1,.33,57.61,7,7,0,0,0,0,56.55ZM63.31,73.11c-2.92-4-7-6.1-11.56-7.53a6.93,6.93,0,0,0,11.56,7.53Z"/><path class="cls-2" d="M54.92,125.68c-4.07-.72-8.18-1.09-12.19-2.2A56.85,56.85,0,0,1,1.49,75.31a10.92,10.92,0,0,1-.18-3.77A40.46,40.46,0,0,0,6.64,75.7,28.81,28.81,0,0,0,13,78.41c2.78,11.59,8.89,21.16,18.84,28s21,9.27,33.06,7.68a29.42,29.42,0,0,0,16,6.51,50.34,50.34,0,0,1-12.15,3.91c-2.16.42-4.33.78-6.5,1.17Z"/><path class="cls-2" d="M513.91,86.5H505c0-3,0-5.82,0-8.61,0-3.83.11-7.69-.25-11.49-.33-3.47-2-4.86-4.76-5a6.23,6.23,0,0,0-6.49,4.6,18.12,18.12,0,0,0-.36,5.14c0,5,0,10,0,15.09h-8.63V55.08h8.52l.18,2.8c.67.11,1-.4,1.32-.7a11.37,11.37,0,0,1,11.87-1.95c4.22,1.67,6.5,5,7.15,9.46a7.35,7.35,0,0,0,.33,1.08Z"/><path class="cls-1" d="M197.44,82.48V97.53h-8.58c-.29-1.47-.38-39.46-.09-42.45h8.62v3.18c2.28-1.79,4.43-3.22,7.06-3.65a13.5,13.5,0,0,1,14.49,7.46,17.26,17.26,0,0,1-.37,17.58C214.05,87.35,204.09,89.71,197.44,82.48Zm-.09-11.78c0,4.29,2.38,7.79,5.75,8.48A7.69,7.69,0,0,0,212,72.57c.8-5.43-2.11-10.24-6.47-10.7l-.19,0C200.73,61.47,197.35,65.21,197.35,70.7Z"/><path class="cls-1" d="M149.33,79.65,154.75,73c3.24,2.62,6.48,5,10.62,5.63a8.26,8.26,0,0,0,4.7-.48,3.54,3.54,0,0,0,2.28-3.27,3.46,3.46,0,0,0-1.93-3.3,23.33,23.33,0,0,0-5.78-2,50.26,50.26,0,0,1-7.76-2.71c-7.78-3.38-7.49-15.92-.78-19.78,5.26-3,10.72-3.05,16.33-1.57A20.32,20.32,0,0,1,181,50l-4.54,6.58c-3.3-2.27-6.75-4-10.82-3.94a6.45,6.45,0,0,0-2.81.46,3.59,3.59,0,0,0-2.27,3.27,3.27,3.27,0,0,0,2,3.22,39.36,39.36,0,0,0,7.09,2.31c1.29.37,2.59.73,3.83,1.22,6.33,2.51,8.78,6.38,8.24,12.87-.43,5.07-4.65,9.37-10.53,10.43C162.8,87.93,155.66,85.34,149.33,79.65Z"/><path class="cls-2" d="M417.78,58.56c-6.71-7.55-15.88-5.89-20.06-1.5-4.43,4.65-4.25,13.18.24,17.84,4.14,4.29,13.1,5.29,19.06-1.47L422.92,79c-4.77,6.69-14.46,9.52-23.33,6.82a20,20,0,0,1-14.43-18.75c-.34-9.84,4.75-17.85,13.44-21.12a22.1,22.1,0,0,1,24.68,6.37Z"/><path class="cls-1" d="M234.51,73.73a6.72,6.72,0,0,0,4.39,5.17c3.47,1.47,7.26.68,11-2.35l4.73,5.12c-4.74,5.59-14.83,6.86-21.55,2.77s-9.26-13-6.06-20.67c2.92-7,11.12-10.81,19-8.87,8.45,2.07,12,8.06,11.14,18.83Zm.32-6.4h13.59c-.74-3.74-3-5.7-6.46-5.7A7,7,0,0,0,234.83,67.33Z"/><path class="cls-1" d="M378.79,70.75c0,9.25-7.15,16.13-16.65,16.1s-16.53-7-16.51-16.25,7.1-16.2,16.56-16.22S378.82,61.37,378.79,70.75ZM370,70.63c0-4.09-2-7.22-5.21-8.33a7.54,7.54,0,0,0-8.57,2.56A10.34,10.34,0,0,0,356,76.22,7.6,7.6,0,0,0,364.56,79C367.93,78,370,74.8,370,70.63Z"/><path class="cls-2" d="M444.19,86.85c-9.42,0-16.64-7.07-16.61-16.23s7.34-16.32,16.81-16.26,16.51,7.14,16.49,16.37S453.66,86.86,444.19,86.85ZM452,70.72c0-5.17-3.2-8.81-7.8-8.81s-7.78,3.59-7.84,8.61,3.19,8.76,7.83,8.76S452,75.8,452,70.72Z"/><path class="cls-1" d="M286.76,74.83l4.92,5.52c-3.67,5.3-11.4,7.72-18.25,5.78a15.51,15.51,0,0,1-11.5-14c-.37-7.91,3.28-13.83,10.2-16.54,6.53-2.56,14.93-.64,19.25,4.5L287,65.83c-2.87-2.82-6.21-4.27-10.22-3.47a7.8,7.8,0,0,0-4.75,3c-2.42,3.18-2,8.64.78,11.31C276.6,80.32,281,79.75,286.76,74.83Z"/><path class="cls-1" d="M308.1,54.92h7.52v6.26h-7.43c0,5.14-.16,10,.06,14.93.13,2.7,2.62,3.82,5.1,2.59a17.67,17.67,0,0,0,2.18-1.54l3.08,5.76a11.46,11.46,0,0,1-12.5,3.23C301.89,84.6,299.43,81,299.29,76c-.07-2.43,0-4.86,0-7.29s0-4.85,0-7.49h-3.52V55h3.43V45.64h8.91Z"/><path class="cls-1" d="M332.17,55.07v3.81c2.8-2.45,5.55-4.33,9.27-4.41V62.6c-1,0-1.92,0-2.86.14-3.66.46-6.2,3.69-6.33,8.42-.14,5,0,10,0,15.1h-8.75V55.07Z"/><path class="cls-2" d="M467.5,55H476V86.3H467.5Z"/><path class="cls-2" d="M103.78,64.42a53.17,53.17,0,0,0,10.36-4.32,56.53,56.53,0,0,1-3.73,30.5c-2.32-5.7-4.87-10.91-6.48-16.39C103.06,71.23,103.78,67.77,103.78,64.42Z"/><path class="cls-2" d="M72.23,25a49.31,49.31,0,0,0,7.64-8.83A55.78,55.78,0,0,1,99.63,30.05L86.15,32.43A48.35,48.35,0,0,0,72.23,25Z"/><path class="cls-2" d="M471.66,52.37a4.92,4.92,0,0,1-5-5.12,5.11,5.11,0,0,1,5.08-5.15,5.2,5.2,0,0,1,5.2,5.28A5.06,5.06,0,0,1,471.66,52.37Z"/></svg>