<svg id="Layer_1" data-name="Layer 1" xmlns="http://www.w3.org/2000/svg" viewBox="0 0 38.7 38.4"><defs><style>.cls-1{fill:#4175e2;}</style></defs><title>logo_coinsbank_small</title><path class="cls-1" d="M13.5,27.6,16,25.1a7.12,7.12,0,0,0,3.4.8,6.71,6.71,0,0,0,3.3-.8l2.4,2.4,2.6-2.6-2.4-2.4a6.56,6.56,0,0,0,.9-3.3,8.2,8.2,0,0,0-.9-3.4l2.5-2.5-2.6-2.6-2.5,2.5a6.71,6.71,0,0,0-3.3-.7,8.43,8.43,0,0,0-3.3.7l-2.4-2.3L11,13.5l2.3,2.3a6.92,6.92,0,0,0-.9,3.4,6.56,6.56,0,0,0,.9,3.3L10.8,25Zm5.8-11.3a2.92,2.92,0,0,1,2.9,3,2.9,2.9,0,0,1-5.8,0A2.92,2.92,0,0,1,19.3,16.3ZM0,0V38.4H38.7V0ZM34.4,34.2H4.3V4.3H34.4Z"/></svg>