<svg id="Layer_1" data-name="Layer 1" xmlns="http://www.w3.org/2000/svg" viewBox="0 0 620.71 104.78"><defs><style>.cls-1{fill:#f6534f;}</style></defs><title>logo_uquid</title><path class="cls-1" d="M257.7,95.79l8.54,6.07c-2.37,4-5.26,2.71-7.52,2.72-33.09.1-66.18.2-99.27,0-17.28-.1-23.58-6.59-23.66-23.66q-.13-29,0-58C135.9,8.25,141.67,1,156.26.59,183-.19,209.8-.16,236.55.48c14.62.35,21.12,8.33,21.14,23C257.73,46.9,257.7,70.3,257.7,95.79Zm-43.07-40,12.75,9.73V25H166.45V80.3c9.86,1,19,1.38,30.31-.45l-26-24.1Z"/><path class="cls-1" d="M499,104.56V44.69H529V79.35h59.78V24.24H499.29V.33c35.7,0,70.9-.41,106.08.27,9.73.19,15.07,7.6,15.16,17.46.2,22.28.3,44.57-.05,66.85-.17,10.81-4.93,19.36-16.93,19.5C569.07,104.84,534.59,104.56,499,104.56Z"/><path class="cls-1" d="M91.88.76h29.51c0,29.74.59,59-.34,88.17-.3,9.54-8.79,15.1-18,15.28q-42.89.84-85.81-.1C8.6,103.92.6,98.9.38,89.36-.29,60.14.13,30.89.13.95h29.2V79.63H91.88Z"/><path class="cls-1" d="M364.93,79.82V1.55C374.93-.68,384.29,0,394.74,1c0,29.67.69,58.91-.38,88.09-.36,10-9.45,15.12-19.17,15.28-27.49.43-55,.56-82.48,0-12.49-.28-19.64-7.21-19.52-20.7.24-27.4.07-54.8.07-82.59a107.69,107.69,0,0,1,29.49.19v78.6Z"/><path class="cls-1" d="M461.63,23.52V79.79c6.9,4,14.79-.22,22.21,3.08V104H410.63c-2.44-6.8-.86-14-1.06-21.94l21.87-1V24.12H410V.82H483c2.77,7.29,1.24,14.52,1.18,22.7Z"/></svg>