<svg id="Logo" xmlns="http://www.w3.org/2000/svg" viewBox="0 0 246 51.75"><defs><style>.cls-1{fill:#00cdbd;}.cls-2{fill:#010101;}</style></defs><title>logo_wirex</title><path d="M35.56,36.47c-3.15,6.17-6.91,6.07-10,0C24,33.35,14.42,14.21,9.25,3.14,7.79,0,4.68-.66,2.44.57A4.91,4.91,0,0,0,.61,7.26c1.32,2.67,15.08,33.35,20.62,40a12.06,12.06,0,0,0,18.69.1c5.4-6.47,8.37-15.2,11.28-20.88,2.75-5.56,7.22-5,9.86.1C64,32.26,67.13,40.66,72.23,47.37c4.06,5.35,13.58,6.21,18.59-.1,5.38-6.79,14.42-26.38,21-40.22a4.78,4.78,0,0,0-2-6.46l0,0c-2.23-1.24-5.25-.44-6.7,2.67-5.17,11.06-15,30.34-16.74,33.43-2.84,6-7,5.76-10-.31C75.15,33.79,71.1,26,68,19.5a13.2,13.2,0,0,0-24.08.1C40.83,25.93,38.37,31,35.56,36.47Z"/><path class="cls-1" d="M91.26,3.39c1.12,2.49,20.53,41.05,20.53,41.05,1.36,2.76.48,5.56-2.09,6.79s-5.28.13-6.64-2.57L82.17,7A4.92,4.92,0,0,1,84.33.43l.14-.07c2.19-1,5.43,0,6.79,3Z"/><path class="cls-2" d="M143.4,23.46a.16.16,0,0,0-.17-.14h0a.14.14,0,0,0-.18.15L140,35.2C139.57,37,138.52,38,136.91,38a3.16,3.16,0,0,1-3.15-2.69l-3.68-14a1.86,1.86,0,0,1,1.72-2.55,1.79,1.79,0,0,1,1.86,1.56l3.22,13.33a.18.18,0,0,0,.35,0l3-12.23a3,3,0,0,1,6,0l3,12.23a.18.18,0,0,0,.35,0l3.22-13.29a1.93,1.93,0,0,1,1.82-1.6,1.85,1.85,0,0,1,1.75,2.55l-3.71,14C152.19,37,151.13,38,149.49,38s-2.7-.92-3.15-2.73Zm27.5,12.37a1.87,1.87,0,0,1-1.82,1.91h0a1.93,1.93,0,0,1-1.86-1.91V20.66A1.87,1.87,0,0,1,169,18.75h0a1.91,1.91,0,0,1,1.86,1.91V35.83Zm23.22-15.17a1.72,1.72,0,0,1-1.67,1.77h-.08c-.14,0-.49-.07-1.09-.18a6.25,6.25,0,0,0-1.54-.14c-1.61,0-2.42,1-2.42,2.84V35.87a1.86,1.86,0,0,1-3.72,0V24.35c0-3.65,2.1-5.85,5.88-5.85a12.09,12.09,0,0,1,3.19.39,1.76,1.76,0,0,1,1.43,1.77Zm25.36,6.77a2,2,0,0,1-2.24,2.27h-9.91v.43c0,2.8,1.82,4.4,4.62,4.4a12.23,12.23,0,0,0,4-.85,1.69,1.69,0,0,1,2.52,1.45,1.79,1.79,0,0,1-.95,1.59A10.91,10.91,0,0,1,211.88,38a7.66,7.66,0,0,1-8.14-7.14q0-.24,0-.48a30.63,30.63,0,0,1,0-4.39,7.64,7.64,0,0,1,7.82-7.45h.16a7.55,7.55,0,0,1,5.64,2.2,7.8,7.8,0,0,1,2.14,5.74v1Zm-4-.71a.41.41,0,0,0,.42-.39s0,0,0,0a3.91,3.91,0,0,0-4.17-4.47c-2.94,0-4.48,1.88-4.38,4.89h8.13Zm28.73,11.06a1.76,1.76,0,0,1-1.47-.71L237.91,31l-4.8,6.1a1.82,1.82,0,0,1-1.47.67,1.88,1.88,0,0,1-1.36-3.08l5.26-6.56-5-6.27a2,2,0,0,1-.49-1.28A1.9,1.9,0,0,1,232,18.79a1.64,1.64,0,0,1,1.4.67l4.52,5.81,4.55-5.78a1.86,1.86,0,0,1,2.9,2.34l-.06.07-4.94,6.24,5.18,6.56A2.1,2.1,0,0,1,246,36a1.88,1.88,0,0,1-1.82,1.78Z"/></svg>